<svg width="1600" height="900" viewBox="0 0 1600 900" fill="none" xmlns="http://www.w3.org/2000/svg">
  <defs>
    <g id="cross">
      <rect x="-14" y="-44" width="28" height="88" rx="12" fill="#0F766E" fill-opacity="0.18"/>
      <rect x="-44" y="-14" width="88" height="28" rx="12" fill="#0F766E" fill-opacity="0.18"/>
    </g>
  </defs>
  <g transform="translate(214 176) scale(1.3)">
    <use href="#cross"/>
  </g>
  <g transform="translate(1360 210)">
    <use href="#cross"/>
  </g>
  <g transform="translate(1184 670) scale(1.6)">
    <use href="#cross"/>
  </g>
  <path d="M-40 636C188 548 438 530 672 588C914 648 1138 670 1370 598C1462 568 1552 530 1642 474" stroke="#14B8A6" stroke-opacity="0.22" stroke-width="30" stroke-linecap="round"/>
  <path d="M-20 722C208 654 448 654 684 714C916 772 1162 786 1402 728C1498 704 1584 674 1648 648" stroke="#0F766E" stroke-opacity="0.16" stroke-width="22" stroke-linecap="round"/>
  <circle cx="384" cy="250" r="82" fill="#D6FBF7" fill-opacity="0.22"/>
  <circle cx="1128" cy="170" r="58" fill="#14B8A6" fill-opacity="0.12"/>
</svg>
