<svg width="1600" height="900" viewBox="0 0 1600 900" fill="none" xmlns="http://www.w3.org/2000/svg">
  <defs>
    <radialGradient id="wellness-glow" cx="50%" cy="50%" r="50%">
      <stop offset="0" stop-color="#FFF9F0" stop-opacity="0.72"/>
      <stop offset="1" stop-color="#FFF9F0" stop-opacity="0"/>
    </radialGradient>
    <linearGradient id="petal-sky" x1="0" y1="0" x2="1" y2="1">
      <stop offset="0" stop-color="#73C7E3" stop-opacity="0.72"/>
      <stop offset="1" stop-color="#24B0BA" stop-opacity="0.38"/>
    </linearGradient>
    <linearGradient id="petal-gold" x1="0" y1="0" x2="1" y2="1">
      <stop offset="0" stop-color="#CF8A40" stop-opacity="0.32"/>
      <stop offset="1" stop-color="#FFF9F0" stop-opacity="0.08"/>
    </linearGradient>
    <g id="lotus">
      <ellipse cx="0" cy="-82" rx="46" ry="112" fill="url(#petal-sky)"/>
      <ellipse cx="-62" cy="-58" rx="42" ry="104" fill="url(#petal-sky)" transform="rotate(-38 -62 -58)"/>
      <ellipse cx="62" cy="-58" rx="42" ry="104" fill="url(#petal-sky)" transform="rotate(38 62 -58)"/>
      <ellipse cx="-82" cy="-2" rx="38" ry="94" fill="url(#petal-sky)" transform="rotate(-72 -82 -2)"/>
      <ellipse cx="82" cy="-2" rx="38" ry="94" fill="url(#petal-sky)" transform="rotate(72 82 -2)"/>
      <ellipse cx="0" cy="-22" rx="36" ry="94" fill="#24B0BA" fill-opacity="0.24"/>
      <circle cx="0" cy="0" r="28" fill="#FFF9F0" fill-opacity="0.16"/>
    </g>
  </defs>

  <rect x="86" y="72" width="230" height="230" rx="115" fill="url(#wellness-glow)" opacity="0.55"/>
  <rect x="1186" y="132" width="280" height="280" rx="140" fill="url(#wellness-glow)" opacity="0.38"/>
  <rect x="686" y="578" width="210" height="210" rx="105" fill="url(#wellness-glow)" opacity="0.42"/>

  <g opacity="0.52" transform="translate(118 92) scale(1.35) rotate(-16)">
    <use href="#lotus"/>
  </g>
  <g opacity="0.46" transform="translate(832 390) scale(0.82) rotate(3)">
    <use href="#lotus"/>
  </g>
  <g opacity="0.48" transform="translate(1394 730) scale(1.22) rotate(18)">
    <use href="#lotus"/>
  </g>

  <path d="M-80 732C126 632 322 632 508 694C748 774 944 790 1162 700C1326 632 1484 626 1680 710" stroke="#73C7E3" stroke-opacity="0.18" stroke-width="34" stroke-linecap="round"/>
  <path d="M-60 792C160 698 368 706 582 780C806 858 1022 858 1250 760C1406 693 1542 696 1660 742" stroke="#24B0BA" stroke-opacity="0.18" stroke-width="24" stroke-linecap="round"/>

  <circle cx="422" cy="138" r="46" fill="#FFF9F0" fill-opacity="0.18"/>
  <circle cx="1262" cy="198" r="28" fill="#FFF9F0" fill-opacity="0.14"/>
  <circle cx="1278" cy="624" r="34" fill="#FFF9F0" fill-opacity="0.16"/>
  <circle cx="270" cy="610" r="30" fill="#FFF9F0" fill-opacity="0.12"/>
  <path d="M1030 146C1072 112 1122 112 1168 146" stroke="#CF8A40" stroke-opacity="0.16" stroke-width="12" stroke-linecap="round"/>
  <path d="M320 786C374 754 438 760 494 802" stroke="#2E4A70" stroke-opacity="0.1" stroke-width="10" stroke-linecap="round"/>
</svg>
