<svg width="1600" height="900" viewBox="0 0 1600 900" fill="none" xmlns="http://www.w3.org/2000/svg">
  <defs>
    <pattern id="signalGrid" width="56" height="56" patternUnits="userSpaceOnUse">
      <path d="M55.5 0V56M0 55.5H56" stroke="#DBE3ED" stroke-opacity="0.28"/>
    </pattern>
  </defs>
  <rect width="1600" height="900" fill="url(#signalGrid)"/>
  <path d="M70 674C252 514 448 432 652 426C856 420 1016 524 1170 586C1312 644 1454 656 1580 620" stroke="#11151C" stroke-opacity="0.18" stroke-width="30" stroke-linecap="round"/>
  <path d="M148 756C312 626 470 570 646 570C824 570 972 650 1138 694C1300 736 1440 734 1544 706" stroke="#64748B" stroke-opacity="0.22" stroke-width="18" stroke-linecap="round"/>
  <circle cx="438" cy="318" r="18" fill="#11151C" fill-opacity="0.18"/>
  <circle cx="688" cy="426" r="24" fill="#11151C" fill-opacity="0.22"/>
  <circle cx="962" cy="532" r="18" fill="#64748B" fill-opacity="0.24"/>
  <circle cx="1210" cy="622" r="28" fill="#11151C" fill-opacity="0.16"/>
  <circle cx="1092" cy="212" r="92" fill="#EEF1F5" fill-opacity="0.24"/>
</svg>
