<svg width="1600" height="900" viewBox="0 0 1600 900" fill="none" xmlns="http://www.w3.org/2000/svg">
  <defs>
    <linearGradient id="retailPanelA" x1="0" y1="0" x2="1" y2="1">
      <stop offset="0" stop-color="#312E81" stop-opacity="0.72"/>
      <stop offset="1" stop-color="#A5B4FC" stop-opacity="0.24"/>
    </linearGradient>
    <linearGradient id="retailPanelB" x1="1" y1="0" x2="0" y2="1">
      <stop offset="0" stop-color="#F59E0B" stop-opacity="0.38"/>
      <stop offset="1" stop-color="#F59E0B" stop-opacity="0.06"/>
    </linearGradient>
    <pattern id="retailGrid" width="48" height="48" patternUnits="userSpaceOnUse">
      <path d="M47.5 0V48M0 47.5H48" stroke="#A5B4FC" stroke-opacity="0.22"/>
    </pattern>
  </defs>

  <rect width="1600" height="900" fill="url(#retailGrid)"/>

  <rect x="88" y="96" width="380" height="246" rx="40" fill="url(#retailPanelA)" transform="rotate(-5 88 96)"/>
  <rect x="484" y="144" width="284" height="198" rx="32" fill="#E0E7FF" fill-opacity="0.42" transform="rotate(4 484 144)"/>
  <rect x="892" y="98" width="512" height="290" rx="46" fill="url(#retailPanelB)" transform="rotate(6 892 98)"/>

  <rect x="186" y="470" width="418" height="258" rx="42" fill="#312E81" fill-opacity="0.16"/>
  <rect x="664" y="446" width="318" height="220" rx="38" fill="url(#retailPanelA)" opacity="0.78" transform="rotate(-4 664 446)"/>
  <rect x="1048" y="486" width="368" height="236" rx="34" fill="#E0E7FF" fill-opacity="0.46" transform="rotate(5 1048 486)"/>

  <circle cx="1260" cy="226" r="72" fill="#F59E0B" fill-opacity="0.18"/>
  <circle cx="358" cy="234" r="54" fill="#E0E7FF" fill-opacity="0.24"/>
  <circle cx="816" cy="590" r="36" fill="#A5B4FC" fill-opacity="0.18"/>

  <path d="M130 786C244 730 350 702 472 700C636 698 794 756 968 760C1134 764 1294 720 1488 620" stroke="#312E81" stroke-opacity="0.22" stroke-width="24" stroke-linecap="round"/>
  <path d="M150 830C270 788 378 768 512 772C710 778 876 842 1068 830C1210 822 1330 772 1458 696" stroke="#F59E0B" stroke-opacity="0.26" stroke-width="18" stroke-linecap="round"/>
</svg>
