<svg width="1600" height="900" viewBox="0 0 1600 900" fill="none" xmlns="http://www.w3.org/2000/svg">
  <defs>
    <pattern id="sports-dot-gold" width="22" height="22" patternUnits="userSpaceOnUse" patternTransform="rotate(18)">
      <circle cx="5" cy="5" r="4.2" fill="#F6A600"/>
      <circle cx="16" cy="16" r="2.4" fill="#F6D600"/>
    </pattern>
    <pattern id="sports-dot-blue" width="28" height="28" patternUnits="userSpaceOnUse" patternTransform="rotate(-18)">
      <circle cx="7" cy="7" r="3.4" fill="#003DA5" fill-opacity="0.86"/>
      <circle cx="20" cy="20" r="2.2" fill="#A50034" fill-opacity="0.64"/>
    </pattern>
    <linearGradient id="sports-fade-top" x1="0" y1="0" x2="0" y2="620" gradientUnits="userSpaceOnUse">
      <stop offset="0" stop-color="white"/>
      <stop offset="0.52" stop-color="white" stop-opacity="0.82"/>
      <stop offset="1" stop-color="white" stop-opacity="0"/>
    </linearGradient>
    <linearGradient id="sports-fade-bottom" x1="0" y1="900" x2="0" y2="250" gradientUnits="userSpaceOnUse">
      <stop offset="0" stop-color="white"/>
      <stop offset="0.5" stop-color="white" stop-opacity="0.72"/>
      <stop offset="1" stop-color="white" stop-opacity="0"/>
    </linearGradient>
    <mask id="top-fade-mask">
      <rect width="1600" height="900" fill="url(#sports-fade-top)"/>
    </mask>
    <mask id="bottom-fade-mask">
      <rect width="1600" height="900" fill="url(#sports-fade-bottom)"/>
    </mask>
  </defs>

  <g mask="url(#top-fade-mask)">
    <path d="M-120 -30H1720V185C1474 254 1242 234 1004 178C760 120 524 65 292 152C146 207 22 202 -120 174V-30Z" fill="url(#sports-dot-gold)"/>
    <path d="M-80 126C170 78 380 92 612 158C862 229 1092 278 1336 201C1462 161 1576 154 1680 170V314C1512 276 1390 294 1242 341C1036 406 824 372 584 304C318 228 126 219 -80 270V126Z" fill="url(#sports-dot-blue)" opacity="0.95"/>
  </g>

  <g mask="url(#bottom-fade-mask)" opacity="0.72">
    <path d="M-120 666C72 626 250 642 452 705C710 785 976 820 1244 720C1408 659 1544 654 1720 690V950H-120V666Z" fill="url(#sports-dot-blue)"/>
    <path d="M-80 754C158 718 334 748 548 812C768 878 1008 894 1244 806C1424 739 1564 752 1680 790V950H-80V754Z" fill="url(#sports-dot-gold)" opacity="0.86"/>
  </g>

  <path d="M-50 212C180 158 414 158 704 244C1014 336 1240 314 1508 248" stroke="#003DA5" stroke-opacity="0.22" stroke-width="10" stroke-linecap="round"/>
  <path d="M86 250C280 222 470 242 698 309C978 391 1198 388 1458 318" stroke="#F6A600" stroke-opacity="0.36" stroke-width="8" stroke-linecap="round"/>
</svg>
